<svg id="SJjcTH_gm" data-name="Capa 1" xmlns="http://www.w3.org/2000/svg" viewBox="0 0 512 512"><style>@-webkit-keyframes r1lj5aBOeQ_Animation{0%{opacity: 1;}50%{opacity: 0.25;}100%{opacity: 1;}}@keyframes r1lj5aBOeQ_Animation{0%{opacity: 1;}50%{opacity: 0.25;}100%{opacity: 1;}}@-webkit-keyframes rkHsqarOl7_Animation{0%{opacity: 1;}50%{opacity: 0;}100%{opacity: 1;}}@keyframes rkHsqarOl7_Animation{0%{opacity: 1;}50%{opacity: 0;}100%{opacity: 1;}}@-webkit-keyframes HyEocaSdlm_Animation{0%{opacity: 1;}50%{opacity: 0;}100%{opacity: 1;}}@keyframes HyEocaSdlm_Animation{0%{opacity: 1;}50%{opacity: 0;}100%{opacity: 1;}}@-webkit-keyframes SkLj56B_xm_Animation{0%{opacity: 0;}50%{opacity: 1;}100%{opacity: 0;}}@keyframes SkLj56B_xm_Animation{0%{opacity: 0;}50%{opacity: 1;}100%{opacity: 0;}}@-webkit-keyframes r1Qj5THOgX_Animation{0%{opacity: 0;}50%{opacity: 1;}100%{opacity: 0;}}@keyframes r1Qj5THOgX_Animation{0%{opacity: 0;}50%{opacity: 1;}100%{opacity: 0;}}@-webkit-keyframes Sytjc6HdgQ_Animation{0%{opacity: 1;}50%{opacity: 0;}100%{opacity: 1;}}@keyframes Sytjc6HdgQ_Animation{0%{opacity: 1;}50%{opacity: 0;}100%{opacity: 1;}}@-webkit-keyframes B1PjqTHdxm_Animation{0%{opacity: 0;}50%{opacity: 1;}100%{opacity: 0;}}@keyframes B1PjqTHdxm_Animation{0%{opacity: 0;}50%{opacity: 1;}100%{opacity: 0;}}@-webkit-keyframes rkMsc6Buem_Animation{0%{opacity: 0;}50%{opacity: 1;}100%{opacity: 0;}}@keyframes rkMsc6Buem_Animation{0%{opacity: 0;}50%{opacity: 1;}100%{opacity: 0;}}@-webkit-keyframes rydicpS_lm_Animation{0%{opacity: 1;}50%{opacity: 0;}100%{opacity: 1;}}@keyframes rydicpS_lm_Animation{0%{opacity: 1;}50%{opacity: 0;}100%{opacity: 1;}}@-webkit-keyframes HyTo9TH_eQ_BJp2pB_lm_Animation{0%{-webkit-transform: rotate(720deg);transform: rotate(720deg);}100%{-webkit-transform: rotate(1080deg);transform: rotate(1080deg);}}@keyframes HyTo9TH_eQ_BJp2pB_lm_Animation{0%{-webkit-transform: rotate(720deg);transform: rotate(720deg);}100%{-webkit-transform: rotate(1080deg);transform: rotate(1080deg);}}#SJjcTH_gm *{-webkit-animation-duration: 1s;animation-duration: 1s;-webkit-animation-timing-function: cubic-bezier(0, 0, 1, 1);animation-timing-function: cubic-bezier(0, 0, 1, 1);}#r1lj5aBOeQ{fill: #0984e3;-webkit-animation-name: r1lj5aBOeQ_Animation;animation-name: r1lj5aBOeQ_Animation;-webkit-transform-origin: 50% 50%;transform-origin: 50% 50%;transform-box: fill-box;opacity: 1;-webkit-animation-timing-function: cubic-bezier(0.42, 0, 0.58, 1);animation-timing-function: cubic-bezier(0.42, 0, 0.58, 1);}#B1Zi56Hdx7{fill: #74b9ff;-webkit-transform-origin: 50% 50%;transform-origin: 50% 50%;transform-box: fill-box;}#rkMsc6Buem{fill: #0984e3;-webkit-animation-name: rkMsc6Buem_Animation;animation-name: rkMsc6Buem_Animation;-webkit-transform-origin: 50% 50%;transform-origin: 50% 50%;transform-box: fill-box;opacity: 0;}#r1Qj5THOgX{fill: #0984e3;-webkit-animation-name: r1Qj5THOgX_Animation;animation-name: r1Qj5THOgX_Animation;-webkit-transform-origin: 50% 50%;transform-origin: 50% 50%;transform-box: fill-box;opacity: 0;}#HyEocaSdlm{fill: #0984e3;-webkit-transform-origin: 50% 50%;transform-origin: 50% 50%;transform-box: fill-box;-webkit-animation-name: HyEocaSdlm_Animation;animation-name: HyEocaSdlm_Animation;opacity: 1;}#rkHsqarOl7{fill: #0984e3;-webkit-transform-origin: 50% 50%;transform-origin: 50% 50%;transform-box: fill-box;-webkit-animation-name: rkHsqarOl7_Animation;animation-name: rkHsqarOl7_Animation;opacity: 1;}#SkLj56B_xm{fill: #0984e3;-webkit-animation-name: SkLj56B_xm_Animation;animation-name: SkLj56B_xm_Animation;-webkit-transform-origin: 50% 50%;transform-origin: 50% 50%;transform-box: fill-box;opacity: 0;}#B1PjqTHdxm{fill: #0984e3;-webkit-animation-name: B1PjqTHdxm_Animation;animation-name: B1PjqTHdxm_Animation;-webkit-transform-origin: 50% 50%;transform-origin: 50% 50%;transform-box: fill-box;opacity: 0;}#rydicpS_lm{fill: #0984e3;-webkit-transform-origin: 50% 50%;transform-origin: 50% 50%;transform-box: fill-box;-webkit-animation-name: rydicpS_lm_Animation;animation-name: rydicpS_lm_Animation;opacity: 1;}#Sytjc6HdgQ{fill: #0984e3;-webkit-animation-name: Sytjc6HdgQ_Animation;animation-name: Sytjc6HdgQ_Animation;-webkit-transform-origin: 50% 50%;transform-origin: 50% 50%;transform-box: fill-box;opacity: 1;}#rycoc6HdlQ{fill: #74b9ff;}#HyTo9TH_eQ_BJp2pB_lm{-webkit-transform-origin: 50% 50%;transform-origin: 50% 50%;transform-box: fill-box;-webkit-transform: rotate(720deg);transform: rotate(720deg);-webkit-animation-name: HyTo9TH_eQ_BJp2pB_lm_Animation;animation-name: HyTo9TH_eQ_BJp2pB_lm_Animation;}#rkis5prOxm_B1OfEU_xQ{-webkit-transform-origin: 50% 50%;transform-origin: 50% 50%;transform-box: fill-box;-webkit-transform: translate(0px, 0px);transform: translate(0px, 0px);}</style><defs/><title>CPU_EDITED</title><path d="M344.18,376.24H167.82a32.06,32.06,0,0,1-32.06-32.06V167.82a32.06,32.06,0,0,1,32.06-32.06H344.18a32.06,32.06,0,0,1,32.06,32.06V344.18A32.06,32.06,0,0,1,344.18,376.24Z" id="r1lj5aBOeQ"/><path d="M344.18,352.2H167.82a8,8,0,0,1-8-8V167.82a8,8,0,0,1,8-8H344.18a8,8,0,0,1,8,8V344.18A8,8,0,0,1,344.18,352.2Z" id="B1Zi56Hdx7"/><circle cx="39.56" cy="191.87" r="16.03" id="rkMsc6Buem"/><circle cx="472.44" cy="320.13" r="16.03" id="r1Qj5THOgX"/><circle cx="23.53" cy="392.27" r="16.03" id="HyEocaSdlm"/><circle cx="488.47" cy="119.73" r="16.03" id="rkHsqarOl7"/><circle cx="320.13" cy="39.57" r="16.03" id="SkLj56B_xm"/><circle cx="191.87" cy="472.44" r="16.03" id="B1PjqTHdxm"/><circle cx="119.73" cy="23.53" r="16.03" id="rydicpS_lm"/><circle cx="392.27" cy="488.47" r="16.03" id="Sytjc6HdgQ"/><path d="M256,324.25a8,8,0,0,1,6,2.67,28.15,28.15,0,0,0,21.07,9.24c14,0,25.81-9.82,26.83-22.35a8,8,0,0,1,3.95-6.28c8.83-5.16,14.32-14.15,14.32-23.47a26.2,26.2,0,0,0-7.9-18.41,8,8,0,0,1,0-11.28,26.22,26.22,0,0,0,7.9-18.41c0-12.11-8.84-22.78-22-26.55a8,8,0,0,1-5.6-9.51,17.86,17.86,0,0,0,.53-4c0-11-10.11-20-22.54-20a23.9,23.9,0,0,0-16.87,6.77,8.23,8.23,0,0,1-11.36,0,23.87,23.87,0,0,0-16.86-6.77c-12.44,0-22.55,9-22.55,20a18.81,18.81,0,0,0,.43,4,8,8,0,0,1-5.61,9.43c-13.08,3.77-21.87,14.5-21.87,26.7a25.43,25.43,0,0,0,6.06,16.28,8,8,0,0,1,.2,9.94,29.58,29.58,0,0,0-6.26,17.87c0,10,5.41,19.59,14.49,25.64a8,8,0,0,1,3.57,6.61c.11,13.16,12.24,23.86,27,23.86A28.18,28.18,0,0,0,250,326.92,8,8,0,0,1,256,324.25Z" id="rycoc6HdlQ"/><path d="M504.5,248.5H383.74V231.44h32.58a7.5,7.5,0,0,0,0-15H383.74V199.37h22.62a31.34,31.34,0,0,0,22.31-9.24L478,140.81a23.51,23.51,0,1,0-10.61-10.61l-49.33,49.33a16.44,16.44,0,0,1-11.7,4.84H383.74V167.82a39.61,39.61,0,0,0-39.56-39.56H327.63V61.87a23.53,23.53,0,1,0-15,0v66.39H295.57V95.68a7.5,7.5,0,0,0-15,0v32.58H263.5V7.5a7.5,7.5,0,0,0-15,0V128.26H231.44V95.68a7.5,7.5,0,0,0-15,0v32.58H199.37V105.64a31.34,31.34,0,0,0-9.24-22.31L140.79,34A23.55,23.55,0,1,0,130.18,44.6l49.35,49.34a16.44,16.44,0,0,1,4.84,11.7v22.62H167.82a39.52,39.52,0,0,0-9.88,1.25A7.5,7.5,0,1,0,161.68,144a24.77,24.77,0,0,1,6.14-.77H344.18a24.59,24.59,0,0,1,24.56,24.56V344.18a24.77,24.77,0,0,1-.77,6.14,7.5,7.5,0,0,0,5.39,9.13,7.63,7.63,0,0,0,1.88.24,7.51,7.51,0,0,0,7.26-5.64,39.91,39.91,0,0,0,1.24-9.87V327.63h66.39a23.53,23.53,0,1,0,0-15H383.74V295.56h32.58a7.5,7.5,0,0,0,0-15H383.74V263.5H504.5a7.5,7.5,0,0,0,0-15ZM482.43,113.69a8.54,8.54,0,1,1,0,12.07h0a8.56,8.56,0,0,1,0-12.07ZM320.13,31a8.54,8.54,0,1,1-8.53,8.54A8.55,8.55,0,0,1,320.13,31ZM113.69,29.57a8.53,8.53,0,1,1,12.07,0h0A8.56,8.56,0,0,1,113.69,29.57Zm358.75,282a8.53,8.53,0,1,1-8.54,8.53A8.54,8.54,0,0,1,472.44,311.6Z" id="rkis5prOxm"/><path d="M381.82,467.41l-49.34-49.35a16.41,16.41,0,0,1-4.85-11.7V383.74h16.55a40,40,0,0,0,9.88-1.24A7.5,7.5,0,1,0,350.32,368a24.77,24.77,0,0,1-6.14.77H167.82a24.59,24.59,0,0,1-24.56-24.56V167.82a24.77,24.77,0,0,1,.77-6.14,7.5,7.5,0,1,0-14.52-3.74,39.52,39.52,0,0,0-1.25,9.88v16.55H61.86a23.53,23.53,0,1,0,0,15h66.4v17.07H95.68a7.5,7.5,0,0,0,0,15h32.58V248.5H7.5a7.5,7.5,0,0,0,0,15H128.26v17.07H95.68a7.5,7.5,0,0,0,0,15h32.58v17.06H105.64a31.34,31.34,0,0,0-22.31,9.24L34,371.2a23.52,23.52,0,1,0,10.61,10.6l49.33-49.32a16.41,16.41,0,0,1,11.7-4.85h22.62v16.55a39.61,39.61,0,0,0,39.56,39.56h16.55v66.39a23.53,23.53,0,1,0,15,0V383.74h17.07v32.58a7.5,7.5,0,0,0,15,0V383.74H248.5V504.5a7.5,7.5,0,0,0,15,0V383.74h17.06v32.58a7.5,7.5,0,0,0,15,0V383.74h17.07v22.62a31.34,31.34,0,0,0,9.24,22.31L371.21,478a23.54,23.54,0,1,0,10.61-10.6ZM39.56,200.4a8.53,8.53,0,1,1,8.54-8.53A8.54,8.54,0,0,1,39.56,200.4Zm-10,197.91a8.54,8.54,0,1,1,0-12.07h0a8.56,8.56,0,0,1,0,12.07ZM191.87,481a8.54,8.54,0,1,1,8.53-8.53A8.54,8.54,0,0,1,191.87,481ZM398.31,494.5a8.53,8.53,0,1,1,0-12.06A8.54,8.54,0,0,1,398.31,494.5Z" id="HJ2o9TB_xm"/><g id="HyTo9TH_eQ_BJp2pB_lm" data-animator-group="true" data-animator-type="1"><path d="M194.39,312.1h0c0,17.4,15.5,31.55,34.56,31.55a35.79,35.79,0,0,0,27.05-12,35.81,35.81,0,0,0,27.05,12c18.34,0,33.38-13.11,34.49-29.6,11.13-6.46,18.1-17.78,18.1-30A33.79,33.79,0,0,0,325.21,260a33.79,33.79,0,0,0,10.43-24c0-16-11.73-29.62-27.79-34a25.35,25.35,0,0,0,.74-6c0-15.18-13.48-27.54-30-27.54A31.19,31.19,0,0,0,256,177.71a31.18,31.18,0,0,0-22.54-9.37c-16.57,0-30.05,12.36-30.05,27.54a25.35,25.35,0,0,0,.74,6c-16.06,4.41-27.79,18-27.79,34a32.94,32.94,0,0,0,7.9,21.35,37,37,0,0,0-7.9,22.74C176.35,292.8,183.17,304.71,194.39,312.1Zm20.84-96.69h.2A7.5,7.5,0,0,0,221.8,204l-.17-.27-.1-.14c-.12-.16-.24-.32-.37-.47v0a11.12,11.12,0,0,1-2.74-7.19c0-6.91,6.75-12.54,15-12.54S248.5,189,248.5,195.88a7.5,7.5,0,0,0,15,0c0-6.91,6.75-12.54,15-12.54s15,5.63,15,12.54a10.57,10.57,0,0,1-1.13,4.72,41.39,41.39,0,0,0-12.31,3.09A7.5,7.5,0,0,0,286,217.51a27.05,27.05,0,0,1,10.37-2.1h.42c13.18.08,23.87,9.27,23.87,20.55,0,7.09-4.31,13.6-11.54,17.42a7.49,7.49,0,0,0,0,13.26c7.23,3.82,11.54,10.33,11.54,17.42a19.19,19.19,0,0,1-6.6,14.1,33.73,33.73,0,0,0-19.72-15.88,7.5,7.5,0,0,0-4.5,14.31c7.65,2.4,12.79,8.64,12.79,15.53,0,9.12-8.78,16.54-19.56,16.54s-19.55-7.42-19.55-16.54V264c0-9.13,8.77-16.55,19.55-16.55a7.5,7.5,0,0,0,0-15A36.66,36.66,0,0,0,263.5,238v-9.58a7.5,7.5,0,0,0-15,0v41.63a35.86,35.86,0,0,0-8.29-3.83,7.5,7.5,0,0,0-4.5,14.31c7.65,2.4,12.79,8.64,12.79,15.52v16c0,9.13-8.77,16.55-19.56,16.55s-19.55-7.42-19.55-16.55a15.11,15.11,0,0,1,4.67-10.7,7.5,7.5,0,0,0-10.58-10.64,32.64,32.64,0,0,0-4.63,5.81,22.89,22.89,0,0,1-7.5-16.53c0-11.11,8.72-20.87,21.21-23.74a7.5,7.5,0,0,0-3.35-14.62,45.71,45.71,0,0,0-13.76,5.6,18.09,18.09,0,0,1-4.1-11.33C191.35,224.68,202.05,215.49,215.23,215.41Z" id="HyTo9TH_eQ"/></g><script>(function(){var a=document.querySelector('#SJjcTH_gm'),b=a.querySelectorAll('style'),c=function(d){b.forEach(function(f){var g=f.textContent;g&amp;&amp;(f.textContent=g.replace(/transform-box:[^;\r\n]*/gi,'transform-box: '+d))})};c('initial'),window.requestAnimationFrame(function(){return c('fill-box')})})();</script></svg>